<svg xmlns="http://www.w3.org/2000/svg" width="18.722" height="18.722" viewBox="0 0 18.722 18.722">
  <path id="Icon_awesome-facebook-square" data-name="Icon awesome-facebook-square" d="M16.716,2.25H2.006A2.006,2.006,0,0,0,0,4.256v14.71a2.006,2.006,0,0,0,2.006,2.006H7.742V14.607H5.109v-3H7.742V9.328A3.657,3.657,0,0,1,11.656,5.3a15.95,15.95,0,0,1,2.32.2V8.047H12.67A1.5,1.5,0,0,0,10.98,9.666v1.945h2.874l-.46,3H10.98v6.365h5.736a2.006,2.006,0,0,0,2.006-2.006V4.256A2.006,2.006,0,0,0,16.716,2.25Z" transform="translate(0 -2.25)" fill="#fff"/>
</svg>
