<svg xmlns="http://www.w3.org/2000/svg" width="18.722" height="18.722" viewBox="0 0 18.722 18.722">
  <path id="Icon_awesome-linkedin" data-name="Icon awesome-linkedin" d="M17.385,2.25H1.333A1.343,1.343,0,0,0,0,3.6V19.622a1.343,1.343,0,0,0,1.333,1.35H17.385a1.347,1.347,0,0,0,1.337-1.35V3.6A1.347,1.347,0,0,0,17.385,2.25ZM5.658,18.3H2.884V9.363H5.663V18.3ZM4.271,8.142A1.609,1.609,0,1,1,5.88,6.534,1.61,1.61,0,0,1,4.271,8.142ZM16.06,18.3H13.285V13.951c0-1.036-.021-2.37-1.442-2.37-1.446,0-1.667,1.128-1.667,2.294V18.3H7.4V9.363h2.662v1.22H10.1a2.923,2.923,0,0,1,2.629-1.442c2.808,0,3.331,1.851,3.331,4.258Z" transform="translate(0 -2.25)" fill="#fff"/>
</svg>
